<?xml version="1.0" encoding="iso-8859-1"?>
<!-- Uploaded to: SVG Repo, www.svgrepo.com, Generator: SVG Repo Mixer Tools -->
<svg height="800px" width="800px" version="1.1" id="Layer_1" xmlns="http://www.w3.org/2000/svg" xmlns:xlink="http://www.w3.org/1999/xlink" 
	 viewBox="0 0 511.999 511.999" xml:space="preserve">
<path style="fill:#FFF173;" d="M416.024,220.461l-46.047-46.047l125.13-125.129c8.945-8.945,8.945-23.447,0-32.393
	s-23.447-8.945-32.393,0L337.585,142.022l-46.047-46.047c-6.624-6.624-17.363-6.624-23.987,0c-3.181,3.181-4.968,7.495-4.968,11.994
	v124.486c0,4.684,1.898,8.924,4.968,11.994c3.069,3.069,7.31,4.968,11.994,4.968h124.486c4.498,0,8.813-1.787,11.994-4.968
	C422.647,237.824,422.647,227.085,416.024,220.461z"/>
<path style="fill:#248A9C;" d="M404.031,259.616H279.544c-7.255,0-14.077-2.826-19.206-7.957
	c-5.128-5.127-7.955-11.949-7.955-19.204V107.969c0-7.254,2.826-14.076,7.956-19.206c10.59-10.587,27.822-10.588,38.41,0
	l38.835,38.835L455.502,9.68c12.907-12.907,33.91-12.907,46.817,0c12.907,12.908,12.907,33.909,0,46.817L384.402,174.415
	l38.835,38.834l0,0c10.589,10.59,10.589,27.821,0,38.411C418.106,256.79,411.285,259.616,404.031,259.616z M279.545,101.21
	c-1.732,0-3.464,0.659-4.782,1.977c-1.277,1.277-1.98,2.975-1.98,4.782v124.487c0,1.806,0.703,3.504,1.98,4.78
	c1.278,1.279,2.975,1.982,4.782,1.982h124.487c1.806,0,3.505-0.703,4.782-1.981c2.637-2.636,2.637-6.926,0-9.561l-46.048-46.047
	c-1.912-1.912-2.988-4.507-2.988-7.212c0-2.705,1.075-5.299,2.988-7.212l125.129-125.13c2.4-2.4,3.721-5.589,3.721-8.984
	s-1.322-6.584-3.721-8.984s-5.59-3.721-8.984-3.721s-6.584,1.322-8.984,3.721l-125.129,125.13c-1.913,1.912-4.507,2.988-7.212,2.988
	c-2.705,0-5.3-1.075-7.212-2.988l-46.047-46.048C283.008,101.87,281.276,101.21,279.545,101.21z"/>
<path style="fill:#FFF173;" d="M95.976,291.538l46.047,46.047L16.893,462.714c-8.945,8.945-8.945,23.447,0,32.393
	s23.447,8.945,32.393,0l125.129-125.129l46.047,46.047c6.624,6.624,17.363,6.624,23.987,0c3.181-3.181,4.968-7.495,4.968-11.994
	V279.544c0-4.684-1.898-8.924-4.968-11.994c-3.069-3.069-7.31-4.968-11.994-4.968H107.969c-4.498,0-8.813,1.787-11.994,4.968
	C89.352,274.175,89.352,284.914,95.976,291.538z"/>
<g>
	<path style="fill:#248A9C;" d="M33.089,511.999c-8.478,0-16.955-3.227-23.409-9.681c-12.907-12.908-12.907-33.909,0-46.817
		l117.917-117.917l-38.835-38.834l0,0c-10.589-10.59-10.589-27.821,0-38.411c5.131-5.13,11.952-7.956,19.206-7.956h124.487
		c7.255,0,14.077,2.826,19.206,7.957c5.128,5.127,7.955,11.949,7.955,19.204v124.487c0,7.254-2.826,14.076-7.956,19.206
		c-10.589,10.588-27.821,10.59-38.41,0l-38.835-38.835L56.498,502.319C50.044,508.772,41.567,511.999,33.089,511.999z
		 M103.188,284.324l46.048,46.047c1.912,1.912,2.988,4.507,2.988,7.212c0,2.705-1.075,5.299-2.988,7.212l-125.13,125.13
		c-2.4,2.4-3.721,5.59-3.721,8.984s1.322,6.584,3.721,8.984c2.399,2.4,5.589,3.721,8.984,3.721s6.584-1.322,8.984-3.721
		l125.13-125.13c1.913-1.912,4.507-2.988,7.212-2.988c2.705,0,5.3,1.075,7.212,2.988l46.047,46.048c2.636,2.636,6.925,2.635,9.562,0
		c1.277-1.277,1.98-2.975,1.98-4.782V279.544c0-1.806-0.703-3.504-1.98-4.78c-1.278-1.279-2.975-1.982-4.782-1.982H107.969
		c-1.806,0-3.505,0.703-4.782,1.981C100.552,277.399,100.552,281.689,103.188,284.324L103.188,284.324z"/>
	<path style="fill:#248A9C;" d="M364.986,231.914h-2.098c-5.632,0-10.2-4.567-10.2-10.2s4.567-10.2,10.2-10.2h2.098
		c5.632,0,10.2,4.567,10.2,10.2S370.618,231.914,364.986,231.914z"/>
	<path style="fill:#248A9C;" d="M333.548,231.914h-41.182c-5.632,0-10.2-4.567-10.2-10.2s4.567-10.2,10.2-10.2h41.182
		c5.632,0,10.2,4.567,10.2,10.2S339.181,231.914,333.548,231.914z"/>
</g>
</svg>